<?xml version="1.0" encoding="UTF-8" ?>
<!DOCTYPE svg PUBLIC "-//W3C//DTD SVG 1.1//EN" "http://www.w3.org/Graphics/SVG/1.1/DTD/svg11.dtd">
<svg width="624pt" height="503pt" viewBox="0 0 624 503" version="1.1" xmlns="http://www.w3.org/2000/svg">
<g id="#ffffffff">
</g>
<g id="#6c6c6cff">
<path fill="#6c6c6c" opacity="1.00" d=" M 149.26 1.28 C 233.79 1.32 318.32 1.28 402.84 1.30 C 403.77 2.63 403.13 4.44 403.33 5.97 C 403.24 34.64 403.34 63.32 403.28 92.00 C 402.92 93.65 405.07 93.80 406.12 94.11 C 478.37 113.47 550.67 132.66 622.92 152.07 C 623.80 159.35 622.65 166.72 623.25 174.04 C 623.01 251.00 623.42 327.99 623.06 404.97 C 571.05 405.11 519.02 404.98 467.00 405.04 C 417.36 404.93 367.70 405.21 318.08 404.89 C 312.60 396.23 306.76 387.70 299.64 380.30 C 294.19 373.75 287.50 368.51 281.48 362.51 C 275.60 357.35 268.45 354.04 261.59 350.43 C 253.13 346.26 244.67 342.11 236.25 337.86 C 235.19 337.23 233.62 336.56 233.65 335.10 C 234.24 323.01 240.70 311.54 250.25 304.21 C 258.38 298.03 268.69 294.81 278.91 295.63 C 298.44 296.46 316.13 312.72 318.34 332.19 C 319.57 344.79 318.41 357.51 319.00 370.14 C 333.96 370.47 348.96 370.18 363.93 370.28 C 365.49 370.16 367.24 370.65 368.67 369.80 C 368.70 258.63 368.63 147.45 368.70 36.28 C 367.18 35.81 365.55 36.10 363.99 36.02 C 309.32 36.02 254.66 36.02 199.99 36.02 C 194.47 36.22 188.88 35.61 183.42 36.37 C 183.78 64.24 183.46 92.12 183.58 120.00 C 183.56 168.99 183.57 217.97 183.57 266.96 C 183.45 280.97 183.84 295.02 183.34 309.00 C 171.90 308.06 160.38 308.25 148.95 309.07 C 148.91 207.00 148.96 104.92 148.93 2.85 C 149.01 2.46 149.18 1.67 149.26 1.28 M 403.89 129.99 C 403.95 210.02 403.73 290.06 404.00 370.08 C 407.96 370.54 411.99 370.13 415.98 370.28 C 472.98 370.27 529.99 370.30 587.00 370.27 C 587.44 370.16 588.32 369.95 588.77 369.85 C 588.70 306.06 588.97 242.26 588.63 178.49 C 580.34 177.03 572.32 174.16 564.13 172.19 C 512.03 158.45 460.08 144.37 407.96 130.62 C 406.60 130.44 405.24 129.27 403.89 129.99 Z" />
<path fill="#6c6c6c" opacity="1.00" d=" M 214.25 70.31 C 255.71 70.36 297.18 70.26 338.65 70.35 C 338.75 85.13 338.57 99.91 338.72 114.69 C 297.24 114.63 255.75 114.77 214.28 114.62 L 213.56 114.21 C 213.69 99.79 213.53 85.37 213.63 70.95 L 214.25 70.31 Z" />
<path fill="#6c6c6c" opacity="1.00" d=" M 213.50 143.32 C 213.84 143.15 214.52 142.80 214.86 142.62 C 255.95 142.58 297.04 142.70 338.12 142.57 L 338.67 143.15 C 338.80 157.72 338.42 172.30 338.86 186.86 C 297.21 186.95 255.55 186.80 213.90 186.96 L 213.32 186.94 C 213.77 172.41 213.40 157.86 213.50 143.32 Z" />
<path fill="#6c6c6c" opacity="1.00" d=" M 463.99 199.07 C 485.57 199.29 507.20 198.62 528.76 199.31 C 528.60 218.11 528.70 236.90 528.69 255.70 C 507.17 255.92 485.64 255.67 464.12 255.80 L 463.77 255.06 C 463.91 236.40 463.55 217.70 463.99 199.07 Z" />
<path fill="#6c6c6c" opacity="1.00" d=" M 213.73 214.87 C 253.81 214.64 293.89 214.89 333.97 214.75 C 335.56 214.81 337.23 214.55 338.74 215.20 C 338.63 229.72 338.63 244.24 338.73 258.75 C 337.42 259.82 335.52 259.13 333.97 259.31 C 294.30 259.32 254.63 259.27 214.96 259.34 L 213.79 259.12 C 213.43 244.41 213.56 229.60 213.73 214.87 Z" />
<path fill="#6c6c6c" opacity="1.00" d=" M 464.12 279.16 C 485.64 279.22 507.17 279.05 528.68 279.24 C 528.67 298.09 528.67 316.94 528.69 335.79 C 507.15 335.97 485.60 335.81 464.06 335.85 C 463.43 321.62 463.99 307.25 463.79 292.96 C 464.01 288.37 463.38 283.69 464.12 279.16 Z" />
<path fill="#6c6c6c" opacity="1.00" d=" M 148.57 332.64 C 159.36 332.33 170.19 331.73 180.98 332.56 C 184.75 332.52 188.70 333.72 191.49 336.31 C 192.40 339.63 192.32 343.45 195.06 346.01 C 201.95 353.20 213.58 349.80 221.03 356.04 C 224.72 359.15 225.51 364.39 225.29 368.95 C 224.21 380.98 224.86 393.09 225.30 405.14 C 225.37 407.89 226.42 410.67 228.37 412.63 C 231.72 415.70 236.80 415.81 240.97 414.69 C 245.18 413.66 247.56 409.19 247.61 405.10 C 247.84 393.74 247.52 382.38 247.79 371.02 L 248.11 370.39 C 253.46 372.32 258.51 375.56 263.48 378.47 C 267.00 380.92 269.72 384.31 273.00 387.07 C 295.06 406.60 310.25 434.12 313.57 463.52 C 314.38 466.93 315.07 470.80 317.35 473.51 C 322.69 473.96 328.28 476.02 331.38 480.64 C 334.07 484.07 334.07 488.78 333.41 492.88 C 332.44 497.02 328.79 499.58 325.13 501.20 C 321.47 501.97 317.71 501.61 314.00 501.67 C 239.33 501.74 164.67 501.62 90.00 501.73 C 78.93 502.37 67.84 502.47 56.76 502.22 C 42.19 501.35 27.58 501.91 12.99 501.71 C 8.99 501.59 5.13 499.39 2.72 496.25 C 0.45 493.34 0.49 489.46 0.76 485.96 C 2.30 477.95 10.80 473.30 18.49 473.55 C 21.35 463.78 21.56 453.45 24.79 443.75 C 30.86 423.02 43.05 404.43 58.47 389.48 C 66.44 382.13 74.85 374.79 84.78 370.37 C 85.25 381.93 85.21 393.52 85.44 405.10 C 85.47 408.52 86.68 412.23 89.61 414.25 C 93.07 416.63 97.65 416.56 101.55 415.51 C 105.50 414.23 107.70 410.03 107.80 406.07 C 108.09 395.40 108.56 384.70 107.57 374.05 C 107.30 368.33 106.17 361.33 111.03 357.10 C 117.67 350.88 127.86 352.97 135.15 348.15 C 138.90 345.80 139.91 341.28 140.31 337.19 C 141.97 334.33 145.67 333.66 148.57 332.64 Z" />
</g>
<g id="#dbf8ffff">
</g>
<g id="#f8fdfdff">
</g>
<g id="#d9fafeff">
</g>
</svg>
